<svg width="24" height="24" viewBox="0 0 24 24" fill="none" xmlns="http://www.w3.org/2000/svg">
<path d="M11.21 15.4C11.42 15.61 11.71 15.72 11.99 15.72C12.27 15.72 12.55 15.61 12.77 15.4L18 10.16C18.43 9.72999 18.43 9.02999 18 8.59999C17.57 8.16999 16.87 8.16999 16.44 8.59999L13.09 11.95V2.77999C13.09 2.16999 12.6 1.67999 11.99 1.67999C11.38 1.67999 10.89 2.16999 10.89 2.77999V11.96L7.53001 8.60999C7.10001 8.17999 6.40001 8.17999 5.97001 8.60999C5.54001 9.03999 5.54001 9.73999 5.97001 10.17L11.21 15.4Z" fill="white"/>
<path d="M21.38 13.09C20.77 13.09 20.28 13.58 20.28 14.19V18.4C20.28 19.12 19.7 19.7 18.98 19.7H5C4.28 19.7 3.7 19.12 3.7 18.4V14.19C3.7 13.58 3.21 13.09 2.6 13.09C1.99 13.09 1.5 13.58 1.5 14.19V18.4C1.5 20.33 3.07 21.9 5 21.9H18.98C20.91 21.9 22.48 20.33 22.48 18.4V14.19C22.48 13.58 21.99 13.09 21.38 13.09V13.09Z" fill="white"/>
</svg>
