<svg width="24" height="24" viewBox="0 0 24 24" fill="none" xmlns="http://www.w3.org/2000/svg">
<g clip-path="url(#clip0_3_107)">
<path d="M10.8577 1.08849C10.3044 0.846413 9.64871 1.11616 9.39556 1.68884L5.30099 10.9736C4.86525 12.0207 4.94964 13.1882 5.03125 14.317C5.13361 15.7238 5.22906 17.0532 4.3479 18.0588C4.29395 18.1197 4.20404 18.1971 4.10859 18.2788C3.78628 18.554 3.29798 18.9676 3.58709 19.4573L3.60645 19.4905L3.6355 19.5168C3.96473 19.8267 4.28842 20.1587 4.60104 20.4782C4.88185 20.7659 5.17235 21.062 5.46837 21.3455L5.50019 21.376C7.16707 22.9764 7.25006 22.9847 7.37594 22.9958C7.39254 22.9972 7.40776 22.9986 7.42298 22.9986C7.67059 22.9986 7.84073 22.8146 7.93618 22.7122C8.5144 22.087 10.5299 19.2083 10.8743 18.395C11.3709 17.2205 11.299 15.6699 11.2298 14.1704C11.1911 13.3418 11.1551 12.5602 11.2146 11.8755C11.2312 11.6846 11.2063 11.5089 11.1399 11.3512C10.949 10.8947 10.5147 10.6167 10.0153 10.6194C9.50069 10.625 9.05942 10.9307 8.86714 11.419C8.84086 11.484 8.82703 11.5476 8.81734 11.5891L8.00258 15.4375C7.98321 15.472 7.94725 15.4873 7.89468 15.4817C7.85457 15.4776 7.7771 15.4527 7.76465 15.3863C7.7439 15.2645 7.81998 14.9353 7.86563 14.7389C7.88915 14.6393 7.9099 14.5466 7.92373 14.4705C7.94863 14.3377 7.97491 14.187 8.00396 14.0223C8.15751 13.1592 8.38852 11.8547 8.63475 11.2364C8.75924 10.921 9.00824 10.6692 9.3928 10.4686C9.39833 10.4659 9.40525 10.4631 9.41216 10.4603C9.78565 10.3137 10.0526 9.99279 10.1246 9.60408L11.4802 2.26568C11.512 2.09 11.5065 1.92539 11.4636 1.77599C11.3751 1.4689 11.1524 1.21714 10.8522 1.08711L10.8577 1.08849Z" fill="#ADB5BD"/>
<path d="M19.8271 18.2788C19.7316 18.1972 19.6403 18.1197 19.5878 18.0602C18.7066 17.0532 18.8021 15.7252 18.9044 14.317C18.986 13.1882 19.0704 12.0207 18.6333 10.968L14.5415 1.68887C14.2883 1.11619 13.6327 0.846443 13.0793 1.08852C12.7806 1.21855 12.5578 1.47031 12.4679 1.7774C12.425 1.9268 12.4195 2.09141 12.4513 2.26709L13.807 9.6055C13.8789 9.9942 14.1445 10.3151 14.5194 10.4631C14.5263 10.4659 14.5332 10.4687 14.5387 10.4714C14.9233 10.6734 15.1723 10.9238 15.2968 11.2392C15.5416 11.8575 15.774 13.162 15.9276 14.0251C15.9566 14.1884 15.9843 14.3405 16.0078 14.4733C16.0216 14.548 16.0424 14.6407 16.0659 14.7417C16.1115 14.9381 16.1876 15.2673 16.1669 15.3891C16.1544 15.4569 16.077 15.4818 16.0368 15.4845C15.9843 15.4901 15.9483 15.4748 15.9289 15.4403L15.1142 11.5919C15.1059 11.5504 15.0907 11.4868 15.0644 11.4218C14.8707 10.9335 14.4308 10.6278 13.9162 10.6222H13.9024C13.4058 10.6222 12.9811 10.9016 12.7916 11.354C12.7252 11.5117 12.7003 11.6874 12.7169 11.8783C12.7764 12.563 12.7404 13.3446 12.7017 14.1732C12.6325 15.6727 12.5606 17.2219 13.0572 18.3978C13.4017 19.2111 15.4171 22.0898 15.9953 22.715C16.0894 22.8174 16.2609 23.0014 16.5085 23.0014C16.5238 23.0014 16.5404 23.0014 16.5556 22.9986C16.6815 22.9862 16.7645 22.9792 18.4313 21.3788L18.4631 21.3483C18.7592 21.0648 19.0497 20.7673 19.3305 20.481C19.6431 20.1601 19.9668 19.8295 20.296 19.5196L20.3251 19.4933L20.3444 19.4601C20.6349 18.9704 20.1466 18.5554 19.8229 18.2816L19.8271 18.2788Z" fill="#ADB5BD"/>
</g>
<defs>
<clipPath id="clip0_3_107">
<rect width="16.9371" height="22" fill="white" transform="translate(3.5 1)"/>
</clipPath>
</defs>
</svg>
